<svg width="72" height="80" viewBox="0 0 72 80" fill="none" xmlns="http://www.w3.org/2000/svg" xmlns:xlink="http://www.w3.org/1999/xlink">
<path d="M17.614,69.613L32.014,80L35.839,74.7L22.301,64.938L17.614,69.613Z" fill="#FFFFFF"/>
<path d="M10.5,48.138L0.813,57.838C0.288,58.363 0,59.05 0,59.775C0,60.513 0.288,61.2 0.813,61.725L9.813,70.725C10.325,71.238 11.025,71.525 11.75,71.525C12.487,71.525 13.175,71.238 13.688,70.725L23.375,61.025L10.5,48.138ZM22.825,19.875L22.65,19.863L20.938,24.038L21.213,24.113C32.15,27.125 44.4,39.375 47.425,50.313L47.5,50.588L51.675,48.875L51.663,48.7C50.913,36.775 34.738,20.613 22.825,19.875Z" fill="#FFFFFF"/>
<path d="M20.376,25.95L20.164,25.9L11.676,46.488L25.026,59.838L45.614,51.35L45.564,51.138C42.864,40.675 30.851,28.675 20.376,25.95ZM46.401,26.625C46.801,26.625 47.176,26.475 47.464,26.188L56.989,16.663C57.576,16.075 57.576,15.125 56.989,14.538C56.701,14.25 56.326,14.1 55.926,14.1C55.526,14.1 55.151,14.25 54.864,14.538L45.339,24.063C45.051,24.35 44.901,24.725 44.901,25.125C44.901,25.525 45.051,25.9 45.339,26.188C45.626,26.463 46.001,26.625 46.401,26.625ZM71.476,29.325C71.301,28.663 70.701,28.213 70.026,28.213C69.901,28.213 69.776,28.225 69.651,28.263L54.564,32.225C53.764,32.438 53.289,33.263 53.501,34.05C53.676,34.713 54.264,35.163 54.951,35.163C55.076,35.163 55.214,35.15 55.339,35.113L70.426,31.15C71.214,30.938 71.689,30.125 71.476,29.325ZM37.476,18.025C37.601,18.063 37.726,18.075 37.864,18.075C38.539,18.075 39.139,17.613 39.314,16.963L43.276,1.875C43.489,1.075 43.014,0.25 42.214,0.05C42.076,0.013 41.951,0 41.826,0C41.139,0 40.551,0.463 40.376,1.112L36.414,16.2C36.201,17 36.676,17.813 37.476,18.025Z" fill="#FFFFFF"/>
</svg>
